<svg height="512" viewBox="0 0 512 512" width="512" xmlns="http://www.w3.org/2000/svg"><g><g fill="#57a4ff"><path d="m304 336h24v40h-24z"/><path d="m448 104v96h-120v136h-184v-56a24.006 24.006 0 0 0 -24-24h-16l-8 24h-32v-176a24.006 24.006 0 0 1 24-24h336a24.006 24.006 0 0 1 24 24z"/><g><path d="m104 256-8 24h-32l-8-24z"/><path d="m104 256-8 24h-32l-8-24z"/><path d="m472 176h-144a24.006 24.006 0 0 0 -24 24v208a24 24 0 0 0 16 22.62 23.6 23.6 0 0 0 8 1.38h144a24.006 24.006 0 0 0 24-24v-208a24.006 24.006 0 0 0 -24-24zm0 208h-144v-184h144z"/><circle cx="392" cy="408" r="8"/><path d="m288 408h-64l8-32h48z"/><path d="m320 430.62a24 24 0 0 1 -16-22.62z"/></g></g><g fill="#004fac"><path d="m64 400h-24a8 8 0 0 0 0 16h24a8 8 0 0 0 0-16z"/><path d="m96 400h-8a8 8 0 0 0 0 16h8a8 8 0 0 0 0-16z"/><path d="m472 168h-16v-64a32.042 32.042 0 0 0 -32-32h-336a32.036 32.036 0 0 0 -32 32v144h-16a32.036 32.036 0 0 0 -32 32v128a32.036 32.036 0 0 0 32 32h80a32.042 32.042 0 0 0 32-32v-24h69.75l-4 16h-25.75a8 8 0 0 0 -8 8v24a8 8 0 0 0 8 8h280a32.042 32.042 0 0 0 32-32v-208a32.042 32.042 0 0 0 -32-32zm-336 240a16.021 16.021 0 0 1 -16 16h-80a16.021 16.021 0 0 1 -16-16v-128a16.021 16.021 0 0 1 16-16h10.23l6.18 18.53a8 8 0 0 0 7.59 5.47h32a8 8 0 0 0 7.59-5.47l6.18-18.53h10.23a16.021 16.021 0 0 1 16 16zm-68.9-144h25.8l-2.67 8h-20.46zm84.9 104v-24h144v24zm144 16v16h-1.75l-4-16zm-18.25 16h-43.5l4-16h35.5zm-77.75 24v-8h97.01a31.971 31.971 0 0 0 3.3 8zm96-224v128h-144v-48a32.042 32.042 0 0 0 -32-32h-48v-144a16.021 16.021 0 0 1 16-16h336a16.021 16.021 0 0 1 16 16v64h-112a32.042 32.042 0 0 0 -32 32zm192 208a16.021 16.021 0 0 1 -16 16h-144a16.021 16.021 0 0 1 -16-16v-208a16.021 16.021 0 0 1 16-16h144a16.021 16.021 0 0 1 16 16z"/><path d="m472 192h-144a8 8 0 0 0 -8 8v184a8 8 0 0 0 8 8h144a8 8 0 0 0 8-8v-184a8 8 0 0 0 -8-8zm-8 184h-128v-168h128z"/><circle cx="392" cy="408" r="8"/></g></g></svg>